<?xml version="1.0" encoding="UTF-8"?>
<svg width="128pt" height="128pt" version="1.1" viewBox="0 0 128 128" xmlns="http://www.w3.org/2000/svg">
 <g fill="#547768">
  <path d="m78.836 48.742-21.02 18.715-8.2188-9.1641h0.003906c-2.0469-2.125-5.4102-2.25-7.6055-0.28125-2.1953 1.9688-2.4375 5.3242-0.55078 7.5898l15.5 17.293 29.16-25.984c2.1523-2.0352 2.2969-5.4141 0.32812-7.625-1.9688-2.2109-5.3398-2.457-7.6094-0.55469z"/>
  <path d="m118.46 46.297c-1.9727-6.0547 0-14.078-3.7109-19.199-3.7109-5.1211-12.008-5.7461-17.102-9.4453-5.0938-3.6992-8.2188-11.355-14.262-13.312-5.8477-1.8945-12.914 2.418-19.391 2.418s-13.543-4.3125-19.391-2.418c-6.043 1.957-9.2188 9.7383-14.262 13.336-5.043 3.5977-13.387 4.3672-17.086 9.4609s-1.7422 13.121-3.7266 19.16c-1.8555 5.8516-8.2539 11.227-8.2539 17.703s6.3984 11.852 8.2578 17.703c1.9727 6.0547 0 14.078 3.7109 19.199s12.008 5.7461 17.102 9.4453c5.0938 3.6992 8.2031 11.379 14.258 13.352 5.8359 1.8945 12.914-2.418 19.391-2.418s13.543 4.3125 19.391 2.418c6.0547-1.9727 9.2305-9.6758 14.258-13.352 5.0312-3.6719 13.391-4.3633 17.102-9.4453 3.7109-5.082 1.7539-13.121 3.7109-19.199 1.8594-5.8516 8.2578-11.227 8.2578-17.703s-6.3984-11.852-8.2539-17.703zm-54.465 57.613c-10.586 0-20.734-4.2031-28.223-11.688-7.4844-7.4883-11.688-17.637-11.688-28.223s4.2031-20.734 11.688-28.223c7.4883-7.4844 17.637-11.688 28.223-11.688s20.734 4.2031 28.223 11.688c7.4844 7.4883 11.688 17.637 11.688 28.223s-4.2031 20.734-11.688 28.223c-7.4883 7.4844-17.637 11.688-28.223 11.688z"/>
 </g>
</svg>
