<svg width="128" height="127" viewBox="0 0 128 127" fill="none" xmlns="http://www.w3.org/2000/svg">
<g clip-path="url(#clip0_3_1678)">
<path d="M86.7667 41.5354H91.7925C96.8053 41.5354 100.366 45.6207 99.6973 50.624L94.1575 92.6925C93.502 97.6828 88.8619 101.781 83.849 101.781H43.9261C38.9133 101.781 34.2732 97.6957 33.6176 92.6925L28.0778 50.624C27.4223 45.6337 30.9827 41.5354 35.9955 41.5354H40.8156" stroke="#1C4A36" stroke-opacity="0.75" stroke-width="2.5" stroke-linejoin="round"/>
<path d="M63.8876 101.445V74.5281" stroke="#1C4A36" stroke-opacity="0.75" stroke-width="2.5" stroke-linecap="round" stroke-linejoin="round"/>
<path d="M80.6485 41.8584C80.6485 51.1668 73.1421 58.7169 63.8876 58.7169C54.6331 58.7169 47.1266 51.1668 47.1266 41.8584C47.1266 32.5501 54.6331 25 63.8876 25C73.1421 25 80.6485 32.5501 80.6485 41.8584Z" stroke="#1C4A36" stroke-opacity="0.75" stroke-width="2.5" stroke-linejoin="round"/>
<path d="M62.7822 42.8411L70.6999 35.7822" stroke="#1C4A36" stroke-opacity="0.75" stroke-width="2.5" stroke-linecap="round" stroke-linejoin="round"/>
<path d="M53.7076 68.1029C53.7076 68.6588 53.2577 69.1113 52.705 69.1113C52.1523 69.1113 51.7025 68.6588 51.7025 68.1029C51.7025 67.547 52.1523 67.0945 52.705 67.0945C53.2577 67.0945 53.7076 67.547 53.7076 68.1029Z" stroke="#1C4A36" stroke-opacity="0.75" stroke-width="2.5" stroke-miterlimit="10"/>
<path d="M45.16 68.1029C45.16 68.6588 44.7102 69.1113 44.1575 69.1113C43.6048 69.1113 43.1549 68.6588 43.1549 68.1029C43.1549 67.547 43.6048 67.0945 44.1575 67.0945C44.7102 67.0945 45.16 67.547 45.16 68.1029Z" stroke="#1C4A36" stroke-opacity="0.75" stroke-width="2.5" stroke-miterlimit="10"/>
<path d="M53.7076 78.5101C53.7076 79.066 53.2577 79.5185 52.705 79.5185C52.1523 79.5185 51.7025 79.066 51.7025 78.5101C51.7025 77.9542 52.1523 77.5017 52.705 77.5017C53.2577 77.5017 53.7076 77.9542 53.7076 78.5101Z" stroke="#1C4A36" stroke-opacity="0.75" stroke-width="2.5" stroke-miterlimit="10"/>
<path d="M45.16 78.5101C45.16 79.066 44.7102 79.5185 44.1575 79.5185C43.6048 79.5185 43.1549 79.066 43.1549 78.5101C43.1549 77.9542 43.6048 77.5017 44.1575 77.5017C44.7102 77.5017 45.16 77.9542 45.16 78.5101Z" stroke="#1C4A36" stroke-opacity="0.75" stroke-width="2.5" stroke-miterlimit="10"/>
<path d="M53.7076 88.9044C53.7076 89.4603 53.2577 89.9128 52.705 89.9128C52.1523 89.9128 51.7025 89.4603 51.7025 88.9044C51.7025 88.3485 52.1523 87.896 52.705 87.896C53.2577 87.896 53.7076 88.3485 53.7076 88.9044Z" stroke="#1C4A36" stroke-opacity="0.75" stroke-width="2.5" stroke-miterlimit="10"/>
<path d="M45.16 88.9044C45.16 89.4603 44.7102 89.9128 44.1575 89.9128C43.6048 89.9128 43.1549 89.4603 43.1549 88.9044C43.1549 88.3485 43.6048 87.896 44.1575 87.896C44.7102 87.896 45.16 88.3485 45.16 88.9044Z" stroke="#1C4A36" stroke-opacity="0.75" stroke-width="2.5" stroke-miterlimit="10"/>
<path d="M84.6202 68.1029C84.6202 68.6588 84.1703 69.1113 83.6176 69.1113C83.0649 69.1113 82.6151 68.6588 82.6151 68.1029C82.6151 67.547 83.0649 67.0945 83.6176 67.0945C84.1703 67.0945 84.6202 67.547 84.6202 68.1029Z" stroke="#1C4A36" stroke-opacity="0.75" stroke-width="2.5" stroke-miterlimit="10"/>
<path d="M76.0855 68.1029C76.0855 68.6588 75.6356 69.1113 75.0829 69.1113C74.5302 69.1113 74.0804 68.6588 74.0804 68.1029C74.0804 67.547 74.5302 67.0945 75.0829 67.0945C75.6356 67.0945 76.0855 67.547 76.0855 68.1029Z" stroke="#1C4A36" stroke-opacity="0.75" stroke-width="2.5" stroke-miterlimit="10"/>
<path d="M84.6202 78.5101C84.6202 79.066 84.1703 79.5185 83.6176 79.5185C83.0649 79.5185 82.6151 79.066 82.6151 78.5101C82.6151 77.9542 83.0649 77.5017 83.6176 77.5017C84.1703 77.5017 84.6202 77.9542 84.6202 78.5101Z" stroke="#1C4A36" stroke-opacity="0.75" stroke-width="2.5" stroke-miterlimit="10"/>
<path d="M76.0855 78.5101C76.0855 79.066 75.6356 79.5185 75.0829 79.5185C74.5302 79.5185 74.0804 79.066 74.0804 78.5101C74.0804 77.9542 74.5302 77.5017 75.0829 77.5017C75.6356 77.5017 76.0855 77.9542 76.0855 78.5101Z" stroke="#1C4A36" stroke-opacity="0.75" stroke-width="2.5" stroke-miterlimit="10"/>
<path d="M84.6202 88.9044C84.6202 89.4603 84.1703 89.9128 83.6176 89.9128C83.0649 89.9128 82.6151 89.4603 82.6151 88.9044C82.6151 88.3485 83.0649 87.896 83.6176 87.896C84.1703 87.896 84.6202 88.3485 84.6202 88.9044Z" stroke="#1C4A36" stroke-opacity="0.75" stroke-width="2.5" stroke-miterlimit="10"/>
<path d="M76.0855 88.9044C76.0855 89.4603 75.6356 89.9128 75.0829 89.9128C74.5302 89.9128 74.0804 89.4603 74.0804 88.9044C74.0804 88.3485 74.5302 87.896 75.0829 87.896C75.6356 87.896 76.0855 88.3485 76.0855 88.9044Z" stroke="#1C4A36" stroke-opacity="0.75" stroke-width="2.5" stroke-miterlimit="10"/>
</g>
<defs>
<clipPath id="clip0_3_1678">
<rect width="80" height="80" fill="white" transform="translate(24 23)"/>
</clipPath>
</defs>
</svg>
