<svg width="128" height="127" viewBox="0 0 128 127" fill="none" xmlns="http://www.w3.org/2000/svg">
<path d="M58.8431 56.5597C65.0129 57.1791 70.6647 52.121 71.459 45.2852C72.1036 39.8028 68.6503 35.4902 63.7122 34.997C59.764 34.6071 56.1151 37.3253 55.6086 41.7067C55.1942 45.2164 57.082 48.1755 60.2359 48.4852C62.7683 48.7375 65.1856 46.7533 65.1856 43.9318" stroke="#1C4A36" stroke-opacity="0.75" stroke-width="2.5" stroke-linecap="round" stroke-linejoin="round"/>
<path d="M30.2619 66.1482C27.4993 66.9167 25.4388 69.8299 25.4388 73.3167C25.4388 77.3884 28.2475 80.6801 31.7007 80.6801C32.7137 80.6801 33.7266 80.4049 34.5784 79.9117C37.3755 92.2414 49.5309 101.566 64.023 101.566C78.5151 101.566 90.6705 92.2644 93.4446 79.8887C94.2964 80.3934 95.2863 80.6801 96.2993 80.6801C99.764 80.6801 102.561 77.3769 102.561 73.3167C102.561 69.2565 99.7525 65.9532 96.2993 65.9532C95.0561 65.9532 93.9281 66.3432 92.9496 67.0887L92.9036 67.0084C90.4633 59.255 84.2935 52.9239 76.259 49.678" stroke="#1C4A36" stroke-opacity="0.75" stroke-width="2.5" stroke-linejoin="round"/>
<path d="M51.741 49.678C43.7065 52.9124 37.5367 59.255 35.0964 67.0084L35.0504 67.0887" stroke="#1C4A36" stroke-opacity="0.75" stroke-width="2.5" stroke-linecap="round" stroke-linejoin="round"/>
<path d="M77.2144 24.4336H86.2503L77.2144 32.7375H86.2503" stroke="#1C4A36" stroke-opacity="0.75" stroke-width="2.5" stroke-linecap="round" stroke-linejoin="round"/>
<path d="M86.2043 38.2659H97.2432L86.2043 48.3935H97.2432" stroke="#1C4A36" stroke-opacity="0.75" stroke-width="2.5" stroke-linecap="round" stroke-linejoin="round"/>
<path d="M58.0028 69.7039C58.0028 72.0781 56.069 74.0049 53.6863 74.0049C51.3036 74.0049 49.3698 72.0781 49.3698 69.7039" stroke="#1C4A36" stroke-opacity="0.75" stroke-width="2.5" stroke-linecap="round" stroke-linejoin="round"/>
<path d="M78.6302 69.7039C78.6302 72.0781 76.6963 74.0049 74.3136 74.0049C71.9309 74.0049 69.9971 72.0781 69.9971 69.7039" stroke="#1C4A36" stroke-opacity="0.75" stroke-width="2.5" stroke-linecap="round" stroke-linejoin="round"/>
<path d="M64 90.0854C64.4768 90.0854 64.8633 89.7003 64.8633 89.2252C64.8633 88.7501 64.4768 88.365 64 88.365C63.5232 88.365 63.1367 88.7501 63.1367 89.2252C63.1367 89.7003 63.5232 90.0854 64 90.0854Z" fill="#1C4A36" fill-opacity="0.75" stroke="#1C4A36" stroke-opacity="0.75" stroke-width="2.5" stroke-miterlimit="10"/>
</svg>
