<svg width="128" height="127" viewBox="0 0 128 127" fill="none" xmlns="http://www.w3.org/2000/svg">
<path d="M78.5545 69.0086L64.2615 83.2746C61.5953 85.9332 61.5953 90.3048 64.2615 92.9634L64.8662 93.5663C67.5324 96.2386 71.9165 96.2386 74.5827 93.5663L100.558 67.6656C103.224 64.9933 103.224 60.6355 100.558 57.9769L74.459 31.9939C71.7928 29.3354 67.4087 29.3354 64.7425 31.9939L64.1378 32.5969C61.4716 35.2555 61.4716 39.6271 64.1378 42.2857L77.3864 55.5649H32.8717C29.0923 55.5649 26 58.6484 26 62.417V63.2666C26 67.0353 29.0923 70.1187 32.8717 70.1187H66.0206" stroke="#1C4A36" stroke-opacity="0.75" stroke-width="2.5" stroke-linecap="round" stroke-linejoin="round"/>
</svg>
