<svg width="128" height="127" viewBox="0 0 128 127" fill="none" xmlns="http://www.w3.org/2000/svg">
<g clip-path="url(#clip0_3_1689)">
<path d="M54.1178 81.7728C54.1178 89.5648 47.8295 95.8757 40.0651 95.8757C32.3008 95.8757 26 89.5648 26 81.7728C26 73.9807 32.2884 67.6699 40.0527 67.6699C47.8171 67.6699 54.1054 73.9807 54.1054 81.7728H54.1178Z" stroke="#1C4A36" stroke-opacity="0.75" stroke-width="2.5" stroke-linecap="round" stroke-linejoin="round"/>
<path d="M102.899 81.7728C102.899 89.5648 96.6109 95.8757 88.8465 95.8757C81.0822 95.8757 74.7938 89.5648 74.7938 81.7728C74.7938 73.9807 81.0822 67.6699 88.8465 67.6699C96.6109 67.6699 102.899 73.9807 102.899 81.7728Z" stroke="#1C4A36" stroke-opacity="0.75" stroke-width="2.5" stroke-linecap="round" stroke-linejoin="round"/>
<path d="M60.5798 69.288C54.0062 63.8236 50.9054 62.8652 50.9054 62.8652C40.9829 59.5417 48.4248 51.7995 48.4248 51.7995L60.8031 41.269C64.7597 38.2069 67.0915 38.1696 68.8899 38.0078C72.3008 37.6966 73.231 38.9911 73.231 38.9911C73.231 38.9911 75.5752 40.8582 76.4806 44.692C77.0512 47.0819 77.076 53.4923 79.1225 55.4216C79.1225 55.4216 82.7442 56.517 92.1953 59.3052" stroke="#1C4A36" stroke-opacity="0.75" stroke-width="2.5" stroke-linecap="round" stroke-linejoin="round"/>
<path d="M69.8202 49.4097L58.4465 57.0897L69.2 65.5913C69.2 65.5913 68.9892 68.3919 63.5194 89.1417" stroke="#1C4A36" stroke-opacity="0.75" stroke-width="2.5" stroke-linecap="round" stroke-linejoin="round"/>
<path d="M87.4449 43.6465C90.9248 43.6465 93.7457 40.8155 93.7457 37.3233C93.7457 33.831 90.9248 31 87.4449 31C83.9651 31 81.1442 33.831 81.1442 37.3233C81.1442 40.8155 83.9651 43.6465 87.4449 43.6465Z" stroke="#1C4A36" stroke-opacity="0.75" stroke-width="2.5" stroke-linecap="round" stroke-linejoin="round"/>
</g>
<defs>
<clipPath id="clip0_3_1689">
<rect width="80" height="80" fill="white" transform="translate(24 23)"/>
</clipPath>
</defs>
</svg>
